<svg width="24" height="24" viewBox="0 0 24 24" fill="none" xmlns="http://www.w3.org/2000/svg">
<g id="vuesax/bold/link">
<g id="link">
<g id="Group 2">
<path id="Vector" d="M8.64022 15.3555C8.3503 15.0656 8.3503 14.5848 8.64022 14.2949L10.7615 12.1736L8.10989 9.52191C7.72098 9.133 7.08458 9.133 6.69567 9.52191L5.11882 11.0988C2.89144 13.3261 2.7783 17.088 5.08347 19.2234C6.13706 20.1921 7.47349 20.6801 8.81699 20.6801C10.2241 20.673 11.6313 20.1427 12.7061 19.0678L14.4738 17.3001C14.8628 16.9112 14.8628 16.2748 14.4738 15.8859L11.8222 13.2342L9.70088 15.3555C9.41096 15.6455 8.93013 15.6455 8.64022 15.3555Z" fill="#4894FE"/>
<path id="Vector_2" d="M15.1805 3.31349C13.7733 3.32057 12.3662 3.85089 11.2914 4.9257L9.52363 6.69346C9.13473 7.08237 9.13473 7.71877 9.52363 8.10768L12.1753 10.7593L14.2966 8.63801C14.5865 8.34809 15.0674 8.34809 15.3573 8.63801C15.6472 8.92792 15.6472 9.40875 15.3573 9.69867L13.2359 11.82L15.8876 14.4716C16.2765 14.8605 16.9129 14.8605 17.3018 14.4716L18.8787 12.8948C21.106 10.6674 21.2192 6.9056 18.9069 4.7772C17.8604 3.8014 16.5169 3.32057 15.1805 3.31349Z" fill="#4894FE"/>
<path id="Vector_3" d="M12.1753 10.7593L10.7611 12.1735L11.8218 13.2342L13.236 11.82L12.1753 10.7593Z" fill="#4894FE"/>
</g>
</g>
</g>
</svg>
